<?xml version="1.0" encoding="UTF-8" standalone="no"?>
<!DOCTYPE svg PUBLIC "-//W3C//DTD SVG 1.1//EN" "http://www.w3.org/Graphics/SVG/1.1/DTD/svg11.dtd">
<svg width="100%" height="100%" viewBox="0 0 560 560" version="1.1" xmlns="http://www.w3.org/2000/svg" xmlns:xlink="http://www.w3.org/1999/xlink" xml:space="preserve" xmlns:serif="http://www.serif.com/" style="fill-rule:evenodd;clip-rule:evenodd;stroke-linejoin:round;stroke-miterlimit:2;">
    <path id="Arrow-Up" d="M490.641,230.189L490.657,230.209C498.726,240.134 504,256.449 504,269.333C504,301.846 476.482,331.155 443.969,335.22C443.857,335.234 443.745,335.247 443.633,335.26L394.439,340.882C390.695,375.997 384.184,436.88 382.193,454.3C381.734,458.314 380.267,463.777 379.895,466.199C373.426,508.245 335.167,541.205 293.121,544.439C292.304,544.502 291.486,544.533 290.667,544.533L269.333,544.533C268.514,544.533 267.696,544.502 266.879,544.439C225.511,541.257 190.099,509.897 180.553,468.529C179.37,463.403 178.355,459.099 177.807,454.3C175.83,437.003 169.396,376.854 165.641,341.629L117.267,337.483C117,337.46 116.733,337.434 116.466,337.404C79.753,333.325 56,304.101 56,271.467C56,255.828 59.955,244.112 67.774,232.383C68.103,231.89 68.445,231.407 68.8,230.933L203.2,51.733C222.4,26.133 251.2,13.333 280,13.333C308.8,13.333 337.6,26.133 356.8,51.733L490.641,230.189Z" style="fill:white;fill-rule:nonzero;"/>
    <path id="Arrow-Up1" serif:id="Arrow-Up" d="M465.6,250.133L331.2,70.933C318.4,53.867 299.2,45.333 280,45.333C260.8,45.333 241.6,53.867 228.8,70.933L94.4,250.133C90.133,256.533 88,262.933 88,271.467C88,288.533 100.8,303.467 120,305.6L194.667,312C194.667,312 206.756,425.778 209.6,450.667C210.012,454.269 210.845,457.486 211.733,461.333C218.133,489.067 241.6,510.4 269.333,512.533L290.667,512.533C318.4,510.4 344,489.067 348.267,461.333C348.601,459.159 349.988,454.269 350.4,450.667C353.244,425.778 365.333,312 365.333,312L440,303.467C457.067,301.333 472,286.4 472,269.333C472,262.933 469.867,254.4 465.6,250.133Z" style="fill:rgb(16,137,255);fill-rule:nonzero;"/>
</svg>
